<?xml version="1.0" encoding="UTF-8" standalone="no"?>
<svg
   xmlns:dc="http://purl.org/dc/elements/1.1/"
   xmlns:cc="http://creativecommons.org/ns#"
   xmlns:rdf="http://www.w3.org/1999/02/22-rdf-syntax-ns#"
   xmlns:svg="http://www.w3.org/2000/svg"
   xmlns="http://www.w3.org/2000/svg"
   version="1.1"
   id="svg2"
   viewBox="0 0 236.3061 83.332839"
   height="23.518379mm"
   width="66.690834mm">
  <defs
     id="defs4" />
  <metadata
     id="metadata7">
    <rdf:RDF>
      <cc:Work
         rdf:about="">
        <dc:format>image/svg+xml</dc:format>
        <dc:type
           rdf:resource="http://purl.org/dc/dcmitype/StillImage" />
        <dc:title></dc:title>
      </cc:Work>
    </rdf:RDF>
  </metadata>
  <g
     transform="translate(-209.30176,-204.31286)"
     id="layer1">
    <g
       id="text4136"
       style="font-style:normal;font-variant:normal;font-weight:normal;font-stretch:normal;font-size:63.59617233px;line-height:125%;font-family:'Venus Rising';-inkscape-font-specification:'Venus Rising, Normal';text-align:start;letter-spacing:0px;word-spacing:0px;writing-mode:lr-tb;text-anchor:start;fill:#4e4b4a;fill-opacity:1;stroke:none;stroke-width:1px;stroke-linecap:butt;stroke-linejoin:miter;stroke-opacity:1">
      <path
         id="path4316"
         style=""
         d="m 281.87058,249.06906 q -5.40568,0 -5.40568,5.08769 l 0,20.41437 q 0,5.0877 5.40568,5.0877 l 24.61171,0 q 5.40568,0 5.40568,-5.0877 l 0,-20.41437 q 0,-5.08769 -5.40568,-5.08769 l -24.61171,0 z m -3.49779,38.53928 q -12.52845,0 -12.52845,-11.32012 l 0,-23.84857 q 0,-11.32011 12.52845,-11.32011 l 31.60729,0 q 12.52845,0 12.52845,11.32011 l 0,23.84857 q 0,11.32012 -12.52845,11.32012 l -31.60729,0 z" />
      <path
         id="path4318"
         style=""
         d="m 347.0815,249.06906 q -5.40568,0 -5.40568,5.08769 l 0,20.41437 q 0,5.0877 5.40568,5.0877 l 24.61172,0 q 5.40567,0 5.40567,-5.0877 l 0,-20.41437 q 0,-5.08769 -5.40567,-5.08769 l -24.61172,0 z m -3.49779,38.53928 q -12.52845,0 -12.52845,-11.32012 l 0,-23.84857 q 0,-11.32011 12.52845,-11.32011 l 31.6073,0 q 12.52844,0 12.52844,11.32011 l 0,23.84857 q 0,11.32012 -12.52844,11.32012 l -31.6073,0 z" />
      <path
         id="path4320"
         style=""
         d="m 407.64094,241.11954 0,38.53928 37.96692,0 0,7.94952 -48.58748,0 0,-46.4888 10.62056,0 z" />
    </g>
    <path
       id="path4240"
       d="m 262.21329,224.41236 -11.68444,-0.22912 -32.76223,28.98197 25.54539,34.48052 18.67216,0 -25.20171,-34.48052 z"
       style="fill:#4e4b4a;fill-opacity:1;fill-rule:evenodd;stroke:none;stroke-width:1px;stroke-linecap:butt;stroke-linejoin:miter;stroke-opacity:1" />
    <rect
       y="204.31288"
       x="209.30176"
       height="83.28019"
       width="12.371748"
       id="rect4244"
       style="opacity:1;fill:#2e72a6;fill-opacity:1;stroke:none;stroke-width:0.2;stroke-miterlimit:0;stroke-dasharray:none;stroke-opacity:1" />
  </g>
</svg>
